<svg width="500" height="500" viewBox="0 0 500 500" fill="none" xmlns="http://www.w3.org/2000/svg">
<rect width="500" height="500" fill="white" fill-opacity="0.71"/>
<path d="M449.9 398.49H416.78V398.74H449.9V398.49Z" fill="#EBEBEB"/>
<path d="M331.22 401.21H322.53V401.46H331.22V401.21Z" fill="#EBEBEB"/>
<path d="M415.78 389.21H396.59V389.46H415.78V389.21Z" fill="#EBEBEB"/>
<path d="M95.65 390.89H52.46V391.14H95.65V390.89Z" fill="#EBEBEB"/>
<path d="M110.89 390.89H104.56V391.14H110.89V390.89Z" fill="#EBEBEB"/>
<path d="M225.15 395.11H131.47V395.36H225.15V395.11Z" fill="#EBEBEB"/>
<path d="M237 337.8H43.92C42.4056 337.8 40.9532 337.198 39.8824 336.128C38.8115 335.057 38.21 333.604 38.21 332.09V60.66C38.2231 59.1543 38.8305 57.7147 39.9 56.6547C40.9694 55.5947 42.4142 54.9999 43.92 55H237C238.514 55 239.967 55.6016 241.038 56.6724C242.108 57.7433 242.71 59.1956 242.71 60.71V332.09C242.71 333.604 242.108 335.057 241.038 336.128C239.967 337.198 238.514 337.8 237 337.8ZM43.92 55.2C42.4727 55.2026 41.0855 55.7787 40.0621 56.8021C39.0387 57.8255 38.4626 59.2127 38.46 60.66V332.09C38.4626 333.537 39.0387 334.924 40.0621 335.948C41.0855 336.971 42.4727 337.547 43.92 337.55H237C238.447 337.547 239.834 336.971 240.858 335.948C241.881 334.924 242.457 333.537 242.46 332.09V60.66C242.457 59.2127 241.881 57.8255 240.858 56.8021C239.834 55.7787 238.447 55.2026 237 55.2H43.92Z" fill="#EBEBEB"/>
<path d="M453.31 337.8H260.21C258.696 337.797 257.246 337.195 256.175 336.125C255.105 335.054 254.503 333.604 254.5 332.09V60.66C254.516 59.1551 255.124 57.7171 256.193 56.6576C257.262 55.5981 258.705 55.0025 260.21 55H453.31C454.812 55.0052 456.252 55.6022 457.317 56.6617C458.382 57.7212 458.987 59.1578 459 60.66V332.09C459 333.601 458.401 335.05 457.335 336.121C456.268 337.191 454.821 337.795 453.31 337.8ZM260.21 55.2C258.763 55.2026 257.375 55.7787 256.352 56.8021C255.329 57.8255 254.753 59.2127 254.75 60.66V332.09C254.753 333.537 255.329 334.924 256.352 335.948C257.375 336.971 258.763 337.547 260.21 337.55H453.31C454.757 337.547 456.145 336.971 457.168 335.948C458.191 334.924 458.767 333.537 458.77 332.09V60.66C458.767 59.2127 458.191 57.8255 457.168 56.8021C456.145 55.7787 454.757 55.2026 453.31 55.2H260.21Z" fill="#EBEBEB"/>
<path d="M500 382.4H0V382.65H500V382.4Z" fill="#EBEBEB"/>
<path d="M150.8 214.92L91.4998 229C91.2562 229.058 91.0035 229.067 90.7563 229.027C90.5091 228.987 90.2723 228.898 90.0595 228.766C89.8467 228.634 89.6621 228.462 89.5163 228.258C89.3704 228.054 89.2663 227.824 89.2098 227.58L70.3798 148.3C70.2624 147.808 70.345 147.29 70.6093 146.859C70.8736 146.427 71.2981 146.119 71.7898 146L108.32 137.33L138.84 156.33L152.22 212.65C152.331 213.139 152.244 213.652 151.978 214.078C151.712 214.503 151.288 214.806 150.8 214.92Z" fill="#F0F0F0"/>
<path d="M138.84 156.31L108.32 137.33L106.38 137.79L113.57 168.06L140.13 161.75L138.84 156.31Z" fill="#E6E6E6"/>
<path d="M138.79 156.1L114.17 161.95L108.32 137.33L138.79 156.1Z" fill="#FAFAFA"/>
<path d="M130.821 165.547L86.9609 175.964L93.5626 203.761L137.423 193.344L130.821 165.547Z" fill="#E6E6E6"/>
<path d="M103.59 191.29L96.3101 203.11L115.41 198.57L103.59 191.29Z" fill="#FAFAFA"/>
<path d="M111.11 199.59L137.42 193.34L136.82 190.81L122.11 181.75L111.11 199.59Z" fill="#FAFAFA"/>
<path d="M111.54 180.56C111.762 181.488 111.704 182.461 111.372 183.356C111.041 184.251 110.452 185.027 109.679 185.587C108.906 186.146 107.984 186.464 107.031 186.499C106.077 186.534 105.135 186.286 104.323 185.785C103.51 185.284 102.865 184.554 102.468 183.686C102.072 182.818 101.942 181.852 102.094 180.91C102.247 179.968 102.676 179.093 103.327 178.395C103.978 177.697 104.821 177.208 105.75 176.99C106.991 176.696 108.298 176.907 109.384 177.576C110.47 178.246 111.245 179.319 111.54 180.56Z" fill="#FAFAFA"/>
<path d="M406.11 148.66L362.85 128.51C362.67 128.427 362.509 128.31 362.375 128.164C362.241 128.018 362.138 127.847 362.07 127.661C362.003 127.475 361.974 127.277 361.984 127.079C361.995 126.882 362.044 126.688 362.13 126.51L389.07 68.66C389.154 68.4811 389.272 68.3205 389.418 68.1875C389.564 68.0544 389.734 67.9515 389.92 67.8846C390.106 67.8177 390.303 67.7881 390.501 67.7976C390.698 67.8071 390.891 67.8555 391.07 67.94L417.7 80.37L427.23 106.85L408.09 147.94C407.923 148.298 407.62 148.575 407.249 148.71C406.878 148.845 406.468 148.827 406.11 148.66Z" fill="#EBEBEB"/>
<path d="M427.23 106.85L417.7 80.3697L416.29 79.7197L406 101.8L425.38 110.82L427.23 106.85Z" fill="#E0E0E0"/>
<path d="M427.3 106.7L409.33 98.3401L417.7 80.3701L427.3 106.7Z" fill="#F5F5F5"/>
<path d="M408.07 132.26L376.07 117.35C373.91 116.35 372.02 119.55 374.19 120.56L406.19 135.46C408.35 136.46 410.24 133.27 408.07 132.26Z" fill="#FAFAFA"/>
<path d="M383.65 100.28L415.65 115.19C417.8 116.19 419.65 112.99 417.52 111.98L385.52 97.0803C383.37 96.0803 381.52 99.2703 383.65 100.28Z" fill="#FAFAFA"/>
<path d="M378.7 110.69L410.7 125.6C412.85 126.6 414.7 123.4 412.57 122.39L380.57 107.49C378.42 106.49 376.57 109.68 378.7 110.69Z" fill="#FAFAFA"/>
<path d="M303 329.36L302 326.09C301.837 325.557 301.533 325.077 301.122 324.701C300.71 324.325 300.206 324.065 299.66 323.95L275.54 318.8C275.14 318.715 274.727 318.71 274.325 318.785C273.923 318.859 273.54 319.012 273.197 319.235C272.854 319.458 272.559 319.747 272.328 320.084C272.097 320.421 271.934 320.8 271.85 321.2L262 367.31C261.825 368.15 261.988 369.024 262.454 369.743C262.921 370.462 263.652 370.968 264.49 371.15L319.31 382.84C320.149 383.018 321.025 382.856 321.745 382.389C322.465 381.923 322.97 381.189 323.15 380.35L331.73 340.11C331.816 339.71 331.823 339.296 331.749 338.893C331.675 338.49 331.522 338.105 331.299 337.761C331.076 337.418 330.787 337.121 330.449 336.889C330.111 336.658 329.731 336.495 329.33 336.41L305 331.22C304.532 331.114 304.101 330.886 303.749 330.56C303.398 330.233 303.14 329.819 303 329.36Z" fill="#E0E0E0"/>
<path d="M329.35 336.41L305.23 331.27C304.686 331.154 304.121 331.185 303.593 331.361C303.066 331.536 302.595 331.851 302.23 332.27L300 334.86C299.683 335.223 299.275 335.495 298.818 335.648C298.361 335.801 297.871 335.83 297.4 335.73L273.06 330.54C272.252 330.368 271.41 330.523 270.716 330.971C270.022 331.419 269.535 332.123 269.36 332.93L262 367.31C261.825 368.149 261.988 369.024 262.454 369.743C262.921 370.462 263.652 370.968 264.49 371.15L319.31 382.84C320.149 383.018 321.025 382.856 321.745 382.389C322.465 381.923 322.97 381.189 323.15 380.35L331.73 340.11C331.817 339.711 331.824 339.299 331.751 338.897C331.679 338.495 331.527 338.111 331.306 337.767C331.085 337.424 330.799 337.127 330.463 336.894C330.127 336.661 329.749 336.497 329.35 336.41Z" fill="#F0F0F0"/>
<path d="M245.18 423.71C352.263 423.71 439.07 418.642 439.07 412.39C439.07 406.138 352.263 401.07 245.18 401.07C138.098 401.07 51.29 406.138 51.29 412.39C51.29 418.642 138.098 423.71 245.18 423.71Z" fill="#F5F5F5"/>
<path d="M364.51 113.46H130.67C124.103 113.46 118.78 118.783 118.78 125.35V303.14C118.78 309.707 124.103 315.03 130.67 315.03H364.51C371.076 315.03 376.4 309.707 376.4 303.14V125.35C376.4 118.783 371.076 113.46 364.51 113.46Z" fill="#FFB90B"/>
<path opacity="0.4" d="M364.51 113.46H130.67C124.103 113.46 118.78 118.783 118.78 125.35V303.14C118.78 309.707 124.103 315.03 130.67 315.03H364.51C371.076 315.03 376.4 309.707 376.4 303.14V125.35C376.4 118.783 371.076 113.46 364.51 113.46Z" fill="white"/>
<path opacity="0.8" d="M364.51 127.11H130.67C126.312 127.11 122.78 130.643 122.78 135V303.14C122.78 307.498 126.312 311.03 130.67 311.03H364.51C368.867 311.03 372.4 307.498 372.4 303.14V135C372.4 130.643 368.867 127.11 364.51 127.11Z" fill="white"/>
<path opacity="0.3" d="M137.15 116.67H134.35C133.306 116.67 132.46 117.516 132.46 118.56V121.36C132.46 122.404 133.306 123.25 134.35 123.25H137.15C138.194 123.25 139.04 122.404 139.04 121.36V118.56C139.04 117.516 138.194 116.67 137.15 116.67Z" fill="white"/>
<path opacity="0.5" d="M147.82 116.67H145.02C143.976 116.67 143.13 117.516 143.13 118.56V121.36C143.13 122.404 143.976 123.25 145.02 123.25H147.82C148.864 123.25 149.71 122.404 149.71 121.36V118.56C149.71 117.516 148.864 116.67 147.82 116.67Z" fill="white"/>
<path opacity="0.7" d="M158.5 116.67H155.7C154.656 116.67 153.81 117.516 153.81 118.56V121.36C153.81 122.404 154.656 123.25 155.7 123.25H158.5C159.543 123.25 160.39 122.404 160.39 121.36V118.56C160.39 117.516 159.543 116.67 158.5 116.67Z" fill="white"/>
<path d="M169.82 168.26L168.71 166.26C168.529 165.93 168.263 165.655 167.94 165.463C167.616 165.271 167.247 165.17 166.87 165.17H150.23C149.673 165.17 149.139 165.391 148.745 165.785C148.352 166.179 148.13 166.713 148.13 167.27V199.07C148.13 199.651 148.361 200.208 148.772 200.618C149.183 201.029 149.74 201.26 150.32 201.26H188.12C188.701 201.26 189.258 201.029 189.669 200.618C190.08 200.208 190.31 199.651 190.31 199.07V171.3C190.31 170.743 190.089 170.209 189.695 169.815C189.301 169.421 188.767 169.2 188.21 169.2H171.42C171.094 169.201 170.773 169.115 170.492 168.949C170.21 168.784 169.978 168.546 169.82 168.26Z" fill="#FFB90B"/>
<path opacity="0.3" d="M169.82 168.26L168.71 166.26C168.529 165.93 168.263 165.655 167.94 165.463C167.616 165.271 167.247 165.17 166.87 165.17H150.23C149.673 165.17 149.139 165.391 148.745 165.785C148.352 166.179 148.13 166.713 148.13 167.27V199.07C148.13 199.651 148.361 200.208 148.772 200.618C149.183 201.029 149.74 201.26 150.32 201.26H188.12C188.701 201.26 189.258 201.029 189.669 200.618C190.08 200.208 190.31 199.651 190.31 199.07V171.3C190.31 170.743 190.089 170.209 189.695 169.815C189.301 169.421 188.767 169.2 188.21 169.2H171.42C171.094 169.201 170.773 169.115 170.492 168.949C170.21 168.784 169.978 168.546 169.82 168.26Z" fill="white"/>
<path d="M185.05 170.471H152.8V194.581H185.05V170.471Z" fill="#263238"/>
<path opacity="0.8" d="M185.05 170.471H152.8V194.581H185.05V170.471Z" fill="white"/>
<path d="M187.38 172.891H150.47V200.491H187.38V172.891Z" fill="#263238"/>
<path opacity="0.9" d="M187.38 172.891H150.47V200.491H187.38V172.891Z" fill="white"/>
<path d="M194 173.58H171.89C171.439 173.558 170.988 173.631 170.566 173.793C170.144 173.954 169.761 174.202 169.44 174.52L168 176.26C167.738 176.536 167.419 176.753 167.065 176.895C166.711 177.036 166.331 177.099 165.95 177.08H144.35C142.85 177.08 141.85 177.89 142.11 178.89C144.22 187.08 145.28 191.17 147.39 199.35C147.58 199.902 147.937 200.381 148.412 200.72C148.887 201.058 149.456 201.24 150.04 201.24H187.52C188.104 201.24 188.673 201.058 189.148 200.72C189.623 200.381 189.98 199.902 190.17 199.35L196.35 175.4C196.6 174.4 195.56 173.58 194 173.58Z" fill="#FFB90B"/>
<g opacity="0.6">
<path d="M194 173.58H171.89C171.439 173.558 170.988 173.631 170.566 173.793C170.144 173.954 169.761 174.202 169.44 174.52L168 176.26C167.738 176.536 167.419 176.753 167.065 176.895C166.711 177.036 166.331 177.099 165.95 177.08H144.35C142.85 177.08 141.85 177.89 142.11 178.89C144.22 187.08 145.28 191.17 147.39 199.35C147.58 199.902 147.937 200.381 148.412 200.72C148.887 201.058 149.456 201.24 150.04 201.24H187.52C188.104 201.24 188.673 201.058 189.148 200.72C189.623 200.381 189.98 199.902 190.17 199.35L196.35 175.4C196.6 174.4 195.56 173.58 194 173.58Z" fill="white"/>
</g>
<path d="M149 213.22C148.645 213.265 148.285 213.234 147.943 213.129C147.601 213.024 147.285 212.847 147.017 212.611C146.749 212.374 146.534 212.083 146.386 211.757C146.239 211.431 146.163 211.078 146.163 210.72C146.163 210.363 146.239 210.009 146.386 209.683C146.534 209.357 146.749 209.066 147.017 208.83C147.285 208.593 147.601 208.416 147.943 208.311C148.285 208.206 148.645 208.175 149 208.22H189.33C189.685 208.175 190.045 208.206 190.387 208.311C190.729 208.416 191.045 208.593 191.313 208.83C191.581 209.066 191.796 209.357 191.943 209.683C192.091 210.009 192.167 210.363 192.167 210.72C192.167 211.078 192.091 211.431 191.943 211.757C191.796 212.083 191.581 212.374 191.313 212.611C191.045 212.847 190.729 213.024 190.387 213.129C190.045 213.234 189.685 213.265 189.33 213.22H149Z" fill="#263238"/>
<path opacity="0.6" d="M149 213.22C148.645 213.265 148.285 213.234 147.943 213.129C147.601 213.024 147.285 212.847 147.017 212.611C146.749 212.374 146.534 212.083 146.386 211.757C146.239 211.431 146.163 211.078 146.163 210.72C146.163 210.363 146.239 210.009 146.386 209.683C146.534 209.357 146.749 209.066 147.017 208.83C147.285 208.593 147.601 208.416 147.943 208.311C148.285 208.206 148.645 208.175 149 208.22H189.33C189.685 208.175 190.045 208.206 190.387 208.311C190.729 208.416 191.045 208.593 191.313 208.83C191.581 209.066 191.796 209.357 191.943 209.683C192.091 210.009 192.167 210.363 192.167 210.72C192.167 211.078 192.091 211.431 191.943 211.757C191.796 212.083 191.581 212.374 191.313 212.611C191.045 212.847 190.729 213.024 190.387 213.129C190.045 213.234 189.685 213.265 189.33 213.22H149Z" fill="white"/>
<path d="M245 168.26L243.89 166.26C243.708 165.931 243.442 165.656 243.118 165.465C242.795 165.273 242.426 165.171 242.05 165.17H225.45C224.893 165.17 224.359 165.391 223.965 165.785C223.571 166.179 223.35 166.713 223.35 167.27V199.07C223.349 199.357 223.404 199.642 223.513 199.907C223.622 200.173 223.783 200.414 223.985 200.618C224.188 200.821 224.428 200.983 224.694 201.093C224.959 201.203 225.243 201.26 225.53 201.26H263.34C263.627 201.26 263.912 201.203 264.177 201.093C264.442 200.983 264.683 200.821 264.885 200.618C265.088 200.414 265.248 200.173 265.357 199.907C265.466 199.642 265.521 199.357 265.52 199.07V171.3C265.52 170.743 265.299 170.209 264.905 169.815C264.511 169.421 263.977 169.2 263.42 169.2H246.63C246.299 169.207 245.971 169.123 245.684 168.957C245.397 168.791 245.16 168.55 245 168.26Z" fill="#FFB90B"/>
<path opacity="0.3" d="M245 168.26L243.89 166.26C243.708 165.931 243.442 165.656 243.118 165.465C242.795 165.273 242.426 165.171 242.05 165.17H225.45C224.893 165.17 224.359 165.391 223.965 165.785C223.571 166.179 223.35 166.713 223.35 167.27V199.07C223.349 199.357 223.404 199.642 223.513 199.907C223.622 200.173 223.783 200.414 223.985 200.618C224.188 200.821 224.428 200.983 224.694 201.093C224.959 201.203 225.243 201.26 225.53 201.26H263.34C263.627 201.26 263.912 201.203 264.177 201.093C264.442 200.983 264.683 200.821 264.885 200.618C265.088 200.414 265.248 200.173 265.357 199.907C265.466 199.642 265.521 199.357 265.52 199.07V171.3C265.52 170.743 265.299 170.209 264.905 169.815C264.511 169.421 263.977 169.2 263.42 169.2H246.63C246.299 169.207 245.971 169.123 245.684 168.957C245.397 168.791 245.16 168.55 245 168.26Z" fill="white"/>
<path d="M260.27 170.471H228.02V194.581H260.27V170.471Z" fill="#263238"/>
<path opacity="0.8" d="M260.27 170.471H228.02V194.581H260.27V170.471Z" fill="white"/>
<path d="M262.6 172.891H225.69V200.491H262.6V172.891Z" fill="#263238"/>
<path opacity="0.9" d="M262.6 172.891H225.69V200.491H262.6V172.891Z" fill="white"/>
<path d="M269.23 173.58H247.11C246.658 173.558 246.205 173.63 245.782 173.792C245.358 173.954 244.973 174.202 244.65 174.52L243.2 176.26C242.944 176.53 242.633 176.743 242.288 176.884C241.943 177.025 241.573 177.092 241.2 177.08H219.55C218.06 177.08 217.06 177.89 217.31 178.89C219.43 187.08 220.48 191.17 222.59 199.35C222.781 199.901 223.139 200.379 223.614 200.718C224.089 201.056 224.657 201.239 225.24 201.24H262.73C263.314 201.239 263.882 201.056 264.357 200.718C264.832 200.379 265.189 199.901 265.38 199.35L271.56 175.4C271.81 174.4 270.77 173.58 269.23 173.58Z" fill="#FFB90B"/>
<g opacity="0.6">
<path d="M269.23 173.58H247.11C246.658 173.558 246.205 173.63 245.782 173.792C245.358 173.954 244.973 174.202 244.65 174.52L243.2 176.26C242.944 176.53 242.633 176.743 242.288 176.884C241.943 177.025 241.573 177.092 241.2 177.08H219.55C218.06 177.08 217.06 177.89 217.31 178.89C219.43 187.08 220.48 191.17 222.59 199.35C222.781 199.901 223.139 200.379 223.614 200.718C224.089 201.056 224.657 201.239 225.24 201.24H262.73C263.314 201.239 263.882 201.056 264.357 200.718C264.832 200.379 265.189 199.901 265.38 199.35L271.56 175.4C271.81 174.4 270.77 173.58 269.23 173.58Z" fill="white"/>
</g>
<path d="M224.27 213.22C223.661 213.143 223.102 212.847 222.696 212.386C222.291 211.926 222.067 211.334 222.067 210.72C222.067 210.107 222.291 209.514 222.696 209.054C223.102 208.594 223.661 208.297 224.27 208.22H264.6C264.955 208.175 265.315 208.206 265.657 208.311C265.999 208.416 266.315 208.593 266.583 208.83C266.851 209.066 267.066 209.357 267.214 209.683C267.361 210.009 267.437 210.363 267.437 210.72C267.437 211.078 267.361 211.431 267.214 211.757C267.066 212.083 266.851 212.374 266.583 212.611C266.315 212.847 265.999 213.024 265.657 213.129C265.315 213.234 264.955 213.265 264.6 213.22H224.27Z" fill="#263238"/>
<path opacity="0.6" d="M224.27 213.22C223.661 213.143 223.102 212.847 222.696 212.386C222.291 211.926 222.067 211.334 222.067 210.72C222.067 210.107 222.291 209.514 222.696 209.054C223.102 208.594 223.661 208.297 224.27 208.22H264.6C264.955 208.175 265.315 208.206 265.657 208.311C265.999 208.416 266.315 208.593 266.583 208.83C266.851 209.066 267.066 209.357 267.214 209.683C267.361 210.009 267.437 210.363 267.437 210.72C267.437 211.078 267.361 211.431 267.214 211.757C267.066 212.083 266.851 212.374 266.583 212.611C266.315 212.847 265.999 213.024 265.657 213.129C265.315 213.234 264.955 213.265 264.6 213.22H224.27Z" fill="white"/>
<path d="M169.82 248.54L168.71 246.54C168.531 246.209 168.265 245.933 167.941 245.741C167.617 245.549 167.247 245.448 166.87 245.45H150.23C149.673 245.45 149.139 245.671 148.745 246.065C148.352 246.459 148.13 246.993 148.13 247.55V279.35C148.13 279.637 148.187 279.922 148.297 280.187C148.407 280.452 148.569 280.693 148.772 280.895C148.976 281.098 149.217 281.258 149.483 281.367C149.749 281.476 150.033 281.532 150.32 281.53H188.12C188.407 281.532 188.692 281.476 188.958 281.367C189.223 281.258 189.465 281.098 189.668 280.895C189.872 280.693 190.033 280.452 190.143 280.187C190.254 279.922 190.31 279.637 190.31 279.35V251.59C190.31 251.032 190.089 250.497 189.696 250.102C189.302 249.706 188.768 249.483 188.21 249.48H171.42C171.094 249.481 170.773 249.395 170.492 249.229C170.21 249.064 169.978 248.826 169.82 248.54Z" fill="#FFB90B"/>
<path opacity="0.3" d="M169.82 248.54L168.71 246.54C168.531 246.209 168.265 245.933 167.941 245.741C167.617 245.549 167.247 245.448 166.87 245.45H150.23C149.673 245.45 149.139 245.671 148.745 246.065C148.352 246.459 148.13 246.993 148.13 247.55V279.35C148.13 279.637 148.187 279.922 148.297 280.187C148.407 280.452 148.569 280.693 148.772 280.895C148.976 281.098 149.217 281.258 149.483 281.367C149.749 281.476 150.033 281.532 150.32 281.53H188.12C188.407 281.532 188.692 281.476 188.958 281.367C189.223 281.258 189.465 281.098 189.668 280.895C189.872 280.693 190.033 280.452 190.143 280.187C190.254 279.922 190.31 279.637 190.31 279.35V251.59C190.31 251.032 190.089 250.497 189.696 250.102C189.302 249.706 188.768 249.483 188.21 249.48H171.42C171.094 249.481 170.773 249.395 170.492 249.229C170.21 249.064 169.978 248.826 169.82 248.54Z" fill="white"/>
<path d="M185.05 250.76H152.8V274.87H185.05V250.76Z" fill="#263238"/>
<path opacity="0.8" d="M185.05 250.76H152.8V274.87H185.05V250.76Z" fill="white"/>
<path d="M187.38 253.181H150.47V280.781H187.38V253.181Z" fill="#263238"/>
<path opacity="0.9" d="M187.38 253.181H150.47V280.781H187.38V253.181Z" fill="white"/>
<path d="M194 253.87H171.89C171.439 253.848 170.988 253.921 170.566 254.083C170.145 254.244 169.761 254.492 169.44 254.81C168.85 255.51 168.56 255.81 167.99 256.55C167.726 256.823 167.406 257.037 167.053 257.176C166.699 257.316 166.32 257.379 165.94 257.36H144.34C142.84 257.36 141.84 258.18 142.1 259.18C144.21 267.36 145.27 271.45 147.38 279.64C147.572 280.19 147.93 280.667 148.405 281.004C148.88 281.341 149.448 281.521 150.03 281.52H187.51C188.093 281.521 188.661 281.341 189.136 281.004C189.611 280.667 189.969 280.19 190.16 279.64L196.34 255.64C196.6 254.68 195.56 253.87 194 253.87Z" fill="#FFB90B"/>
<g opacity="0.6">
<path d="M194 253.87H171.89C171.439 253.848 170.988 253.921 170.566 254.083C170.145 254.244 169.761 254.492 169.44 254.81C168.85 255.51 168.56 255.81 167.99 256.55C167.726 256.823 167.406 257.037 167.053 257.176C166.699 257.316 166.32 257.379 165.94 257.36H144.34C142.84 257.36 141.84 258.18 142.1 259.18C144.21 267.36 145.27 271.45 147.38 279.64C147.572 280.19 147.93 280.667 148.405 281.004C148.88 281.341 149.448 281.521 150.03 281.52H187.51C188.093 281.521 188.661 281.341 189.136 281.004C189.611 280.667 189.969 280.19 190.16 279.64L196.34 255.64C196.6 254.68 195.56 253.87 194 253.87Z" fill="white"/>
</g>
<path d="M149 294.51C148.391 294.433 147.832 294.137 147.426 293.676C147.021 293.216 146.797 292.624 146.797 292.01C146.797 291.397 147.021 290.804 147.426 290.344C147.832 289.884 148.391 289.587 149 289.51H189.33C189.685 289.465 190.045 289.496 190.387 289.601C190.729 289.706 191.045 289.883 191.313 290.12C191.581 290.356 191.796 290.647 191.944 290.973C192.091 291.299 192.167 291.653 192.167 292.01C192.167 292.368 192.091 292.721 191.944 293.047C191.796 293.373 191.581 293.664 191.313 293.901C191.045 294.137 190.729 294.314 190.387 294.419C190.045 294.524 189.685 294.555 189.33 294.51H149Z" fill="#263238"/>
<path opacity="0.6" d="M149 294.51C148.391 294.433 147.832 294.137 147.426 293.676C147.021 293.216 146.797 292.624 146.797 292.01C146.797 291.397 147.021 290.804 147.426 290.344C147.832 289.884 148.391 289.587 149 289.51H189.33C189.685 289.465 190.045 289.496 190.387 289.601C190.729 289.706 191.045 289.883 191.313 290.12C191.581 290.356 191.796 290.647 191.944 290.973C192.091 291.299 192.167 291.653 192.167 292.01C192.167 292.368 192.091 292.721 191.944 293.047C191.796 293.373 191.581 293.664 191.313 293.901C191.045 294.137 190.729 294.314 190.387 294.419C190.045 294.524 189.685 294.555 189.33 294.51H149Z" fill="white"/>
<path d="M245 248.54L243.89 246.54C243.71 246.21 243.444 245.934 243.12 245.742C242.796 245.55 242.427 245.449 242.05 245.45H225.45C224.893 245.45 224.359 245.671 223.965 246.065C223.571 246.459 223.35 246.993 223.35 247.55V279.35C223.349 279.637 223.404 279.921 223.513 280.186C223.622 280.451 223.783 280.692 223.986 280.895C224.188 281.097 224.429 281.258 224.694 281.367C224.959 281.476 225.243 281.532 225.53 281.53H263.34C263.627 281.532 263.911 281.476 264.176 281.367C264.441 281.258 264.682 281.097 264.885 280.895C265.087 280.692 265.248 280.451 265.357 280.186C265.466 279.921 265.521 279.637 265.52 279.35V251.59C265.52 251.032 265.299 250.497 264.906 250.102C264.512 249.706 263.978 249.483 263.42 249.48H246.63C246.299 249.487 245.971 249.403 245.684 249.237C245.397 249.072 245.16 248.831 245 248.54Z" fill="#FFB90B"/>
<path opacity="0.3" d="M245 248.54L243.89 246.54C243.71 246.21 243.444 245.934 243.12 245.742C242.796 245.55 242.427 245.449 242.05 245.45H225.45C224.893 245.45 224.359 245.671 223.965 246.065C223.571 246.459 223.35 246.993 223.35 247.55V279.35C223.349 279.637 223.404 279.921 223.513 280.186C223.622 280.451 223.783 280.692 223.986 280.895C224.188 281.097 224.429 281.258 224.694 281.367C224.959 281.476 225.243 281.532 225.53 281.53H263.34C263.627 281.532 263.911 281.476 264.176 281.367C264.441 281.258 264.682 281.097 264.885 280.895C265.087 280.692 265.248 280.451 265.357 280.186C265.466 279.921 265.521 279.637 265.52 279.35V251.59C265.52 251.032 265.299 250.497 264.906 250.102C264.512 249.706 263.978 249.483 263.42 249.48H246.63C246.299 249.487 245.971 249.403 245.684 249.237C245.397 249.072 245.16 248.831 245 248.54Z" fill="white"/>
<path d="M260.27 250.76H228.02V274.87H260.27V250.76Z" fill="#263238"/>
<path opacity="0.8" d="M260.27 250.76H228.02V274.87H260.27V250.76Z" fill="white"/>
<path d="M262.6 253.181H225.69V280.781H262.6V253.181Z" fill="#263238"/>
<path opacity="0.9" d="M262.6 253.181H225.69V280.781H262.6V253.181Z" fill="white"/>
<path d="M269.23 253.87H247.11C246.658 253.848 246.205 253.92 245.782 254.082C245.358 254.244 244.973 254.492 244.65 254.81C244.06 255.51 243.77 255.81 243.2 256.55C242.942 256.817 242.631 257.027 242.286 257.167C241.942 257.306 241.572 257.372 241.2 257.36H219.55C218.06 257.36 217.06 258.18 217.31 259.18C219.43 267.36 220.48 271.45 222.59 279.64C222.783 280.189 223.141 280.665 223.616 281.002C224.091 281.339 224.658 281.52 225.24 281.52H262.73C263.312 281.52 263.88 281.339 264.355 281.002C264.829 280.665 265.188 280.189 265.38 279.64L271.56 255.64C271.81 254.68 270.77 253.87 269.23 253.87Z" fill="#FFB90B"/>
<g opacity="0.6">
<path d="M269.23 253.87H247.11C246.658 253.848 246.205 253.92 245.782 254.082C245.358 254.244 244.973 254.492 244.65 254.81C244.06 255.51 243.77 255.81 243.2 256.55C242.942 256.817 242.631 257.027 242.286 257.167C241.942 257.306 241.572 257.372 241.2 257.36H219.55C218.06 257.36 217.06 258.18 217.31 259.18C219.43 267.36 220.48 271.45 222.59 279.64C222.783 280.189 223.141 280.665 223.616 281.002C224.091 281.339 224.658 281.52 225.24 281.52H262.73C263.312 281.52 263.88 281.339 264.355 281.002C264.829 280.665 265.188 280.189 265.38 279.64L271.56 255.64C271.81 254.68 270.77 253.87 269.23 253.87Z" fill="white"/>
</g>
<path d="M224.27 294.51C223.661 294.433 223.102 294.136 222.696 293.676C222.291 293.216 222.067 292.623 222.067 292.01C222.067 291.396 222.291 290.804 222.696 290.344C223.102 289.883 223.661 289.587 224.27 289.51H264.6C265.209 289.587 265.768 289.883 266.174 290.344C266.579 290.804 266.803 291.396 266.803 292.01C266.803 292.623 266.579 293.216 266.174 293.676C265.768 294.136 265.209 294.433 264.6 294.51H224.27Z" fill="#263238"/>
<path opacity="0.6" d="M224.27 294.51C223.661 294.433 223.102 294.136 222.696 293.676C222.291 293.216 222.067 292.623 222.067 292.01C222.067 291.396 222.291 290.804 222.696 290.344C223.102 289.883 223.661 289.587 224.27 289.51H264.6C265.209 289.587 265.768 289.883 266.174 290.344C266.579 290.804 266.803 291.396 266.803 292.01C266.803 292.623 266.579 293.216 266.174 293.676C265.768 294.136 265.209 294.433 264.6 294.51H224.27Z" fill="white"/>
<path d="M318.56 248.54L317.45 246.54C317.269 246.209 317.001 245.933 316.675 245.741C316.35 245.549 315.978 245.449 315.6 245.45H299C298.725 245.45 298.452 245.505 298.197 245.61C297.942 245.716 297.71 245.87 297.515 246.065C297.32 246.26 297.166 246.492 297.06 246.747C296.955 247.001 296.9 247.274 296.9 247.55V279.35C296.899 279.637 296.955 279.921 297.064 280.186C297.173 280.451 297.333 280.692 297.536 280.895C297.739 281.097 297.98 281.258 298.245 281.367C298.51 281.476 298.794 281.532 299.08 281.53H336.89C337.469 281.53 338.023 281.301 338.432 280.892C338.841 280.483 339.07 279.928 339.07 279.35V251.59C339.07 251.032 338.849 250.497 338.456 250.102C338.062 249.706 337.528 249.483 336.97 249.48H320.15C319.826 249.48 319.507 249.392 319.227 249.227C318.948 249.062 318.717 248.825 318.56 248.54Z" fill="#FFB90B"/>
<path opacity="0.3" d="M318.56 248.54L317.45 246.54C317.269 246.209 317.001 245.933 316.675 245.741C316.35 245.549 315.978 245.449 315.6 245.45H299C298.725 245.45 298.452 245.505 298.197 245.61C297.942 245.716 297.71 245.87 297.515 246.065C297.32 246.26 297.166 246.492 297.06 246.747C296.955 247.001 296.9 247.274 296.9 247.55V279.35C296.899 279.637 296.955 279.921 297.064 280.186C297.173 280.451 297.333 280.692 297.536 280.895C297.739 281.097 297.98 281.258 298.245 281.367C298.51 281.476 298.794 281.532 299.08 281.53H336.89C337.469 281.53 338.023 281.301 338.432 280.892C338.841 280.483 339.07 279.928 339.07 279.35V251.59C339.07 251.032 338.849 250.497 338.456 250.102C338.062 249.706 337.528 249.483 336.97 249.48H320.15C319.826 249.48 319.507 249.392 319.227 249.227C318.948 249.062 318.717 248.825 318.56 248.54Z" fill="white"/>
<path d="M333.79 250.76H301.54V274.87H333.79V250.76Z" fill="#263238"/>
<path opacity="0.8" d="M333.79 250.76H301.54V274.87H333.79V250.76Z" fill="white"/>
<path d="M336.12 253.181H299.21V280.781H336.12V253.181Z" fill="#263238"/>
<path opacity="0.9" d="M336.12 253.181H299.21V280.781H336.12V253.181Z" fill="white"/>
<path d="M342.75 253.87H320.63C320.178 253.848 319.725 253.92 319.302 254.082C318.878 254.244 318.493 254.492 318.17 254.81C317.58 255.51 317.29 255.81 316.72 256.55C316.462 256.817 316.151 257.027 315.806 257.167C315.462 257.306 315.092 257.372 314.72 257.36H293.07C291.58 257.36 290.58 258.18 290.83 259.18C292.95 267.36 294 271.45 296.11 279.64C296.303 280.189 296.661 280.665 297.136 281.002C297.611 281.339 298.178 281.52 298.76 281.52H336.24C336.824 281.522 337.394 281.342 337.87 281.005C338.347 280.668 338.707 280.191 338.9 279.64C340.954 271.64 343.01 263.64 345.07 255.64C345.33 254.68 344.29 253.87 342.75 253.87Z" fill="#FFB90B"/>
<g opacity="0.6">
<path d="M342.75 253.87H320.63C320.178 253.848 319.725 253.92 319.302 254.082C318.878 254.244 318.493 254.492 318.17 254.81C317.58 255.51 317.29 255.81 316.72 256.55C316.462 256.817 316.151 257.027 315.806 257.167C315.462 257.306 315.092 257.372 314.72 257.36H293.07C291.58 257.36 290.58 258.18 290.83 259.18C292.95 267.36 294 271.45 296.11 279.64C296.303 280.189 296.661 280.665 297.136 281.002C297.611 281.339 298.178 281.52 298.76 281.52H336.24C336.824 281.522 337.394 281.342 337.87 281.005C338.347 280.668 338.707 280.191 338.9 279.64C340.954 271.64 343.01 263.64 345.07 255.64C345.33 254.68 344.29 253.87 342.75 253.87Z" fill="white"/>
</g>
<path d="M297.79 294.51C297.181 294.433 296.622 294.136 296.216 293.676C295.811 293.216 295.587 292.623 295.587 292.01C295.587 291.396 295.811 290.804 296.216 290.344C296.622 289.883 297.181 289.587 297.79 289.51H338.12C338.729 289.587 339.288 289.883 339.694 290.344C340.099 290.804 340.323 291.396 340.323 292.01C340.323 292.623 340.099 293.216 339.694 293.676C339.288 294.136 338.729 294.433 338.12 294.51H297.79Z" fill="#263238"/>
<path opacity="0.6" d="M297.79 294.51C297.181 294.433 296.622 294.136 296.216 293.676C295.811 293.216 295.587 292.623 295.587 292.01C295.587 291.396 295.811 290.804 296.216 290.344C296.622 289.883 297.181 289.587 297.79 289.51H338.12C338.729 289.587 339.288 289.883 339.694 290.344C340.099 290.804 340.323 291.396 340.323 292.01C340.323 292.623 340.099 293.216 339.694 293.676C339.288 294.136 338.729 294.433 338.12 294.51H297.79Z" fill="white"/>
<path d="M297.27 213.22C296.915 213.265 296.555 213.234 296.213 213.129C295.871 213.024 295.555 212.847 295.287 212.611C295.019 212.374 294.804 212.083 294.656 211.757C294.509 211.431 294.433 211.078 294.433 210.72C294.433 210.363 294.509 210.009 294.656 209.683C294.804 209.357 295.019 209.066 295.287 208.83C295.555 208.593 295.871 208.416 296.213 208.311C296.555 208.206 296.915 208.175 297.27 208.22H337.6C337.955 208.175 338.315 208.206 338.657 208.311C338.999 208.416 339.315 208.593 339.583 208.83C339.851 209.066 340.066 209.357 340.213 209.683C340.361 210.009 340.437 210.363 340.437 210.72C340.437 211.078 340.361 211.431 340.213 211.757C340.066 212.083 339.851 212.374 339.583 212.611C339.315 212.847 338.999 213.024 338.657 213.129C338.315 213.234 337.955 213.265 337.6 213.22H297.27Z" fill="#263238"/>
<path opacity="0.6" d="M297.27 213.22C296.915 213.265 296.555 213.234 296.213 213.129C295.871 213.024 295.555 212.847 295.287 212.611C295.019 212.374 294.804 212.083 294.656 211.757C294.509 211.431 294.433 211.078 294.433 210.72C294.433 210.363 294.509 210.009 294.656 209.683C294.804 209.357 295.019 209.066 295.287 208.83C295.555 208.593 295.871 208.416 296.213 208.311C296.555 208.206 296.915 208.175 297.27 208.22H337.6C337.955 208.175 338.315 208.206 338.657 208.311C338.999 208.416 339.315 208.593 339.583 208.83C339.851 209.066 340.066 209.357 340.213 209.683C340.361 210.009 340.437 210.363 340.437 210.72C340.437 211.078 340.361 211.431 340.213 211.757C340.066 212.083 339.851 212.374 339.583 212.611C339.315 212.847 338.999 213.024 338.657 213.129C338.315 213.234 337.955 213.265 337.6 213.22H297.27Z" fill="white"/>
<path d="M295.89 202.13L304.49 227.29C304.723 227.842 305.11 228.315 305.605 228.652C306.1 228.989 306.681 229.176 307.28 229.19H324.2C324.532 229.223 324.866 229.142 325.145 228.96C325.425 228.779 325.635 228.507 325.74 228.19L326.24 226.36C326.331 226.087 326.513 225.854 326.755 225.698C326.996 225.541 327.284 225.472 327.57 225.5H344.64C344.883 225.536 345.13 225.507 345.358 225.416C345.586 225.325 345.785 225.176 345.937 224.983C346.088 224.79 346.186 224.56 346.22 224.318C346.253 224.075 346.223 223.827 346.13 223.6L338.79 202.11L338.68 197.91V165.58C338.68 165.015 338.456 164.474 338.056 164.074C337.657 163.675 337.115 163.45 336.55 163.45H319.63C319.248 163.448 318.873 163.549 318.544 163.743C318.215 163.937 317.944 164.215 317.76 164.55L316.63 166.61C316.469 166.899 316.234 167.139 315.95 167.306C315.665 167.473 315.34 167.561 315.01 167.56H297.93C297.362 167.56 296.818 167.786 296.417 168.187C296.015 168.588 295.79 169.133 295.79 169.7V197.93L295.89 202.13Z" fill="#FFB90B"/>
<path opacity="0.6" d="M295.89 202.13L304.49 227.29C304.723 227.842 305.11 228.315 305.605 228.652C306.1 228.989 306.681 229.176 307.28 229.19H324.2C324.532 229.223 324.866 229.142 325.145 228.96C325.425 228.779 325.635 228.507 325.74 228.19L326.24 226.36C326.331 226.087 326.513 225.854 326.755 225.698C326.996 225.541 327.284 225.472 327.57 225.5H344.64C344.883 225.536 345.13 225.507 345.358 225.416C345.586 225.325 345.785 225.176 345.937 224.983C346.088 224.79 346.186 224.56 346.22 224.318C346.253 224.075 346.223 223.827 346.13 223.6L338.79 202.11L338.68 197.91V165.58C338.68 165.015 338.456 164.474 338.056 164.074C337.657 163.675 337.115 163.45 336.55 163.45H319.63C319.248 163.448 318.873 163.549 318.544 163.743C318.215 163.937 317.944 164.215 317.76 164.55L316.63 166.61C316.469 166.899 316.234 167.139 315.95 167.306C315.665 167.473 315.34 167.561 315.01 167.56H297.93C297.362 167.56 296.818 167.786 296.417 168.187C296.015 168.588 295.79 169.133 295.79 169.7V197.93L295.89 202.13Z" fill="white"/>
<path d="M295.89 202.13L304.49 227.29C304.723 227.842 305.11 228.315 305.605 228.652C306.1 228.989 306.682 229.176 307.28 229.19H324.2C324.532 229.223 324.866 229.142 325.145 228.96C325.425 228.779 325.635 228.507 325.74 228.19L326.24 226.36C326.332 226.088 326.513 225.854 326.755 225.698C326.996 225.541 327.284 225.472 327.57 225.5H344.64C344.883 225.536 345.13 225.507 345.358 225.416C345.586 225.325 345.786 225.176 345.937 224.983C346.088 224.79 346.186 224.561 346.22 224.318C346.254 224.075 346.223 223.827 346.13 223.6L338.79 202.11L295.89 202.13Z" fill="#FFB90B"/>
<path opacity="0.3" d="M295.89 202.13L304.49 227.29C304.723 227.842 305.11 228.315 305.605 228.652C306.1 228.989 306.682 229.176 307.28 229.19H324.2C324.532 229.223 324.866 229.142 325.145 228.96C325.425 228.779 325.635 228.507 325.74 228.19L326.24 226.36C326.332 226.088 326.513 225.854 326.755 225.698C326.996 225.541 327.284 225.472 327.57 225.5H344.64C344.883 225.536 345.13 225.507 345.358 225.416C345.586 225.325 345.786 225.176 345.937 224.983C346.088 224.79 346.186 224.561 346.22 224.318C346.254 224.075 346.223 223.827 346.13 223.6L338.79 202.11L295.89 202.13Z" fill="white"/>
<path opacity="0.1" d="M300.03 202.13H334.84L341.19 220.02H306.38L300.03 202.13Z" fill="black"/>
<path d="M300.03 202.13H334.84V173.92H300.03V202.13Z" fill="#263238"/>
<path opacity="0.8" d="M300.03 202.13H334.84V173.92H300.03V202.13Z" fill="white"/>
<path d="M300.03 202.13H334.84L341.9 181.8H307.08L300.03 202.13Z" fill="#263238"/>
<path opacity="0.9" d="M300.03 202.13H334.84L341.9 181.8H307.08L300.03 202.13Z" fill="white"/>
<path d="M300.03 202.13H334.84L341.9 217.2H307.08L300.03 202.13Z" fill="#263238"/>
<path opacity="0.9" d="M300.03 202.13H334.84L341.9 217.2H307.08L300.03 202.13Z" fill="white"/>
<path d="M300.03 202.13H334.84L346.23 194.38H311.41L300.03 202.13Z" fill="#263238"/>
<path opacity="0.8" d="M300.03 202.13H334.84L346.23 194.38H311.41L300.03 202.13Z" fill="white"/>
<path d="M108.3 378.25C109.16 364.68 115.11 350.95 124.68 341.63C127.07 339.31 132.09 334.71 128.02 332.28C123.37 329.5 114.45 342.48 113.2 344.88C115.84 334.54 123.84 327.05 132.52 322.76C136.81 320.64 140.9 318.63 136.33 315.48C131.76 312.33 121.87 319.97 119.58 323.25C125 315.68 131.85 308.1 138.87 303.57C146.62 298.57 143.12 290.23 135.13 296.68C130.18 300.68 122.04 310.68 122.04 310.68C122.04 310.68 134.83 284.99 130.97 282.68C125.97 279.68 117.21 314.68 114.79 321.58C115.44 315.86 116.05 302.02 111.79 301.42C107.9 300.88 108.85 335.34 107.95 341.42C107.38 344.07 107.12 345.42 106.67 348.09C106.25 343.5 103.67 331.4 99.8098 332.8C96.5298 333.98 98.5598 343.04 99.4098 347.34C101.47 357.75 103.55 367.82 103.57 378.5L108.3 378.25Z" fill="#FFB90B"/>
<path opacity="0.4" d="M112.45 308.09C113.03 315.57 113.55 323.17 112.83 330.69C114.368 326.325 116.148 322.048 118.16 317.88C118.183 317.809 118.217 317.741 118.26 317.68C118.86 316.43 119.48 315.19 120.13 313.96C120.39 313.47 121.03 313.69 120.94 314.15C125.68 308.15 131.41 302.65 138.23 299.15C138.73 298.89 139.07 299.65 138.59 299.92C130.67 304.4 124.78 310.71 118.95 318.18C116.49 323.168 114.404 328.332 112.71 333.63C117.013 326.851 123.64 321.874 131.35 319.63C131.87 319.47 132.16 320.27 131.64 320.44C121.09 323.77 113.64 331.15 110.64 340.82C110.621 340.896 110.587 340.967 110.54 341.03C109.07 347.21 107.95 353.21 107.09 359.51C110.09 350.64 116.48 342.81 123.84 337.31C124.28 336.98 124.68 337.74 124.24 338.07C115.767 344.437 109.613 353.404 106.72 363.6C106.72 363.6 106.72 363.6 106.72 363.65C106.4 367.65 106.26 371.65 106.3 375.65C106.309 375.71 106.305 375.771 106.289 375.829C106.272 375.888 106.243 375.942 106.204 375.988C106.164 376.034 106.115 376.071 106.06 376.096C106.005 376.122 105.945 376.135 105.885 376.135C105.824 376.135 105.764 376.122 105.709 376.096C105.654 376.071 105.605 376.034 105.566 375.988C105.526 375.942 105.497 375.888 105.481 375.829C105.464 375.771 105.461 375.71 105.47 375.65C105.534 362.241 107.417 348.902 111.07 336C113.01 326.91 112.31 317.42 111.58 308.27C111.53 307.64 112.4 307.47 112.45 308.09Z" fill="white"/>
<path d="M107.3 378.24C106.3 362.14 99.23 345.85 87.87 334.8C85.04 332.05 79.09 326.59 83.87 323.71C89.38 320.42 99.97 335.81 101.44 338.65C98.32 326.39 88.82 317.51 78.53 312.42C73.44 309.9 68.59 307.53 74.01 303.79C79.43 300.05 91.17 309.12 93.87 313C87.44 304 79.32 295 71 289.66C61.81 283.74 66 273.84 75.43 281.49C81.36 286.23 91 298.06 91 298.06C91 298.06 75.84 267.6 80.42 264.8C86.3 261.2 96.73 302.8 99.6 310.93C98.84 304.15 98.12 287.73 103.22 287.02C107.83 286.38 106.7 327.24 107.77 334.46C108.45 337.61 108.77 339.19 109.28 342.37C109.79 336.93 112.82 322.58 117.43 324.24C121.31 325.64 118.91 336.38 117.9 341.48C115.45 353.82 112.98 365.77 112.97 378.43L107.3 378.24Z" fill="#FFB90B"/>
<path opacity="0.2" d="M102.38 295.001C101.7 303.881 101.08 312.881 101.93 321.801C100.107 316.627 97.9975 311.559 95.6102 306.621C95.5861 306.536 95.549 306.455 95.5002 306.381C94.7802 304.901 94.0502 303.431 93.2902 301.981C92.9802 301.391 92.2102 301.661 92.2902 302.201C86.6702 295.051 79.8802 288.561 71.7902 284.381C71.1902 284.071 70.7902 284.981 71.3602 285.301C80.7502 290.611 87.7302 298.101 94.6602 306.961C97.5704 312.879 100.044 319.002 102.06 325.281C96.9777 317.232 89.1345 311.312 80.0002 308.631C79.3802 308.441 79.0002 309.391 79.6502 309.581C92.1702 313.531 100.95 322.291 104.56 333.761C104.592 333.85 104.635 333.934 104.69 334.011C106.43 341.341 107.75 348.461 108.78 355.921C105.24 345.411 97.6402 336.111 88.9202 329.601C88.3902 329.201 87.9202 330.111 88.4402 330.501C98.4879 338.054 105.786 348.689 109.22 360.781C109.22 360.781 109.22 360.781 109.22 360.831C109.6 365.551 109.767 370.291 109.72 375.051C109.72 375.183 109.773 375.311 109.867 375.404C109.96 375.498 110.088 375.551 110.22 375.551C110.353 375.551 110.48 375.498 110.574 375.404C110.668 375.311 110.72 375.183 110.72 375.051C110.614 359.175 108.353 343.388 104 328.121C101.7 317.351 102.53 306.121 103.4 295.231C103.47 294.491 102.44 294.281 102.38 295.001Z" fill="white"/>
<path d="M107.3 378.24C106.3 362.14 99.23 345.85 87.87 334.8C85.04 332.05 79.09 326.59 83.87 323.71C89.38 320.42 99.97 335.81 101.44 338.65C98.32 326.39 88.82 317.51 78.53 312.42C73.44 309.9 68.59 307.53 74.01 303.79C79.43 300.05 91.17 309.12 93.87 313C87.44 304 79.32 295 71 289.66C61.81 283.74 66 273.84 75.43 281.49C81.36 286.23 91 298.06 91 298.06C91 298.06 75.84 267.6 80.42 264.8C86.3 261.2 96.73 302.8 99.6 310.93C98.84 304.15 98.12 287.73 103.22 287.02C107.83 286.38 106.7 327.24 107.77 334.46C108.45 337.61 108.77 339.19 109.28 342.37C109.79 336.93 112.82 322.58 117.43 324.24C121.31 325.64 118.91 336.38 117.9 341.48C115.45 353.82 112.98 365.77 112.97 378.43L107.3 378.24Z" fill="#FFB90B"/>
<path opacity="0.2" d="M107.3 378.24C106.3 362.14 99.23 345.85 87.87 334.8C85.04 332.05 79.09 326.59 83.87 323.71C89.38 320.42 99.97 335.81 101.44 338.65C98.32 326.39 88.82 317.51 78.53 312.42C73.44 309.9 68.59 307.53 74.01 303.79C79.43 300.05 91.17 309.12 93.87 313C87.44 304 79.32 295 71 289.66C61.81 283.74 66 273.84 75.43 281.49C81.36 286.23 91 298.06 91 298.06C91 298.06 75.84 267.6 80.42 264.8C86.3 261.2 96.73 302.8 99.6 310.93C98.84 304.15 98.12 287.73 103.22 287.02C107.83 286.38 106.7 327.24 107.77 334.46C108.45 337.61 108.77 339.19 109.28 342.37C109.79 336.93 112.82 322.58 117.43 324.24C121.31 325.64 118.91 336.38 117.9 341.48C115.45 353.82 112.98 365.77 112.97 378.43L107.3 378.24Z" fill="white"/>
<path opacity="0.5" d="M102.38 295.001C101.7 303.881 101.08 312.881 101.93 321.801C100.107 316.627 97.9975 311.559 95.6102 306.621C95.5861 306.536 95.549 306.455 95.5002 306.381C94.7802 304.901 94.0502 303.431 93.2902 301.981C92.9802 301.391 92.2102 301.661 92.2902 302.201C86.6702 295.051 79.8802 288.561 71.7902 284.381C71.1902 284.071 70.7902 284.981 71.3602 285.301C80.7502 290.611 87.7302 298.101 94.6602 306.961C97.5704 312.879 100.044 319.002 102.06 325.281C96.9777 317.232 89.1345 311.312 80.0002 308.631C79.3802 308.441 79.0002 309.391 79.6502 309.581C92.1702 313.531 100.95 322.291 104.56 333.761C104.592 333.85 104.635 333.934 104.69 334.011C106.43 341.341 107.75 348.461 108.78 355.921C105.24 345.411 97.6402 336.111 88.9202 329.601C88.3902 329.201 87.9202 330.111 88.4402 330.501C98.4879 338.054 105.786 348.689 109.22 360.781C109.22 360.781 109.22 360.781 109.22 360.831C109.6 365.551 109.767 370.291 109.72 375.051C109.72 375.183 109.773 375.311 109.867 375.404C109.96 375.498 110.088 375.551 110.22 375.551C110.353 375.551 110.48 375.498 110.574 375.404C110.668 375.311 110.72 375.183 110.72 375.051C110.614 359.175 108.353 343.388 104 328.121C101.7 317.351 102.53 306.121 103.4 295.231C103.47 294.491 102.44 294.281 102.38 295.001Z" fill="white"/>
<path d="M123.83 376.051H92.5499C91.5765 376.051 90.6431 376.437 89.9548 377.126C89.2665 377.814 88.8799 378.747 88.8799 379.721V381.341C88.8825 382.312 89.2704 383.243 89.9583 383.929C90.6463 384.616 91.5783 385.001 92.5499 385.001L96.1499 411.001H120.23L123.83 385.001C124.313 385.002 124.791 384.908 125.237 384.724C125.684 384.54 126.09 384.27 126.431 383.929C126.773 383.589 127.045 383.183 127.23 382.738C127.415 382.292 127.51 381.814 127.51 381.331V379.711C127.509 379.229 127.412 378.752 127.227 378.307C127.041 377.862 126.77 377.458 126.428 377.119C126.086 376.779 125.681 376.51 125.235 376.326C124.789 376.143 124.312 376.049 123.83 376.051Z" fill="#FFB90B"/>
<path opacity="0.2" d="M123.83 376.051H92.5499C91.5765 376.051 90.6431 376.437 89.9548 377.126C89.2665 377.814 88.8799 378.747 88.8799 379.721V381.341C88.8825 382.312 89.2704 383.243 89.9583 383.929C90.6463 384.616 91.5783 385.001 92.5499 385.001L96.1499 411.001H120.23L123.83 385.001C124.313 385.002 124.791 384.908 125.237 384.724C125.684 384.54 126.09 384.27 126.431 383.929C126.773 383.589 127.045 383.183 127.23 382.738C127.415 382.292 127.51 381.814 127.51 381.331V379.711C127.509 379.229 127.412 378.752 127.227 378.307C127.041 377.862 126.77 377.458 126.428 377.119C126.086 376.779 125.681 376.51 125.235 376.326C124.789 376.143 124.312 376.049 123.83 376.051Z" fill="black"/>
<path opacity="0.2" d="M123.09 390.371L123.82 385.091H92.5601L93.2901 390.371H123.09Z" fill="black"/>
<path d="M388.8 196.101C388.8 196.101 406.71 211.501 406.71 220.631C406.71 229.021 388.92 238.011 381.1 239.171C378.659 239.31 376.211 239.31 373.77 239.171C372.944 239.171 372.138 238.915 371.463 238.439C370.788 237.963 370.277 237.289 370 236.511L369.91 236.251C369.653 235.544 369.604 234.778 369.768 234.044C369.933 233.31 370.305 232.639 370.84 232.111C371.695 231.216 372.8 230.599 374.01 230.341C376.83 229.901 380.8 233.871 380.8 233.871C380.8 233.871 398.17 223.421 398.17 221.511C398.17 219.601 390.23 213.341 387.87 209.881C385.88 207.001 383.84 202.771 388.8 196.101Z" fill="#B97964"/>
<path d="M389.25 195.24C390.99 196.24 394.9 199.24 401.25 207.64C401.25 207.64 401.02 212.2 392.9 216.45C392.9 216.45 384.25 209.8 384.33 203.39C384.275 201.935 384.512 200.484 385.027 199.122C385.543 197.76 386.326 196.515 387.33 195.46C387.585 195.224 387.909 195.075 388.254 195.035C388.599 194.995 388.948 195.067 389.25 195.24Z" fill="#FFB90B"/>
<path opacity="0.2" d="M387.42 210.941C389.021 212.979 390.85 214.827 392.87 216.451L393.51 216.101C394.34 206.301 391.25 200.101 391.25 200.101L388.19 204.281L387.42 210.941Z" fill="black"/>
<path opacity="0.2" d="M381.43 239.11C385.682 238.188 389.774 236.638 393.57 234.51C391.93 233.31 391.44 229.14 391.31 227.2C386.85 230.2 381.75 233.3 380.93 233.8L381.43 239.11Z" fill="#606060"/>
<path d="M391.72 216.18C391.72 216.18 398.94 212.27 401.22 206.4L402.57 208.68C400.583 212.687 397.233 215.854 393.12 217.61L391.72 216.18Z" fill="#FFB90B"/>
<path opacity="0.5" d="M391.72 216.18C391.72 216.18 398.94 212.27 401.22 206.4L402.57 208.68C400.583 212.687 397.233 215.854 393.12 217.61L391.72 216.18Z" fill="white"/>
<path d="M383.13 209.49L382.13 208.2C381.965 207.988 381.746 207.824 381.496 207.726C381.247 207.627 380.975 207.598 380.71 207.64L369 209.49C368.805 209.52 368.617 209.589 368.449 209.692C368.28 209.795 368.134 209.93 368.018 210.09C367.901 210.25 367.818 210.431 367.772 210.623C367.726 210.815 367.719 211.015 367.75 211.21L371.3 233.59C371.364 233.998 371.587 234.364 371.921 234.608C372.255 234.852 372.672 234.953 373.08 234.89L399.69 230.67C400.098 230.606 400.464 230.382 400.708 230.049C400.952 229.715 401.053 229.298 400.99 228.89L397.89 209.35C397.826 208.959 397.61 208.61 397.29 208.378C396.97 208.146 396.571 208.049 396.18 208.11L384.36 210C384.128 210.034 383.891 210.004 383.675 209.914C383.458 209.824 383.27 209.678 383.13 209.49Z" fill="#FFB90B"/>
<path opacity="0.4" d="M383.13 209.49L382.13 208.2C381.965 207.988 381.746 207.824 381.496 207.726C381.247 207.627 380.975 207.598 380.71 207.64L369 209.49C368.805 209.52 368.617 209.589 368.449 209.692C368.28 209.795 368.134 209.93 368.018 210.09C367.901 210.25 367.818 210.431 367.772 210.623C367.726 210.815 367.719 211.015 367.75 211.21L371.3 233.59C371.364 233.998 371.587 234.364 371.921 234.608C372.255 234.852 372.672 234.953 373.08 234.89L399.69 230.67C400.098 230.606 400.464 230.382 400.708 230.049C400.952 229.715 401.053 229.298 400.99 228.89L397.89 209.35C397.826 208.959 397.61 208.61 397.29 208.378C396.97 208.146 396.571 208.049 396.18 208.11L384.36 210C384.128 210.034 383.891 210.004 383.675 209.914C383.458 209.824 383.27 209.678 383.13 209.49Z" fill="white"/>
<path d="M396.18 208.11L384.47 210C384.202 210.047 383.952 210.164 383.744 210.34C383.537 210.516 383.38 210.744 383.29 211L382.74 212.55C382.659 212.764 382.525 212.954 382.35 213.101C382.175 213.248 381.965 213.348 381.74 213.39L369.92 215.26C369.528 215.322 369.176 215.536 368.941 215.857C368.707 216.177 368.609 216.578 368.67 216.97L371.32 233.66C371.384 234.068 371.607 234.435 371.941 234.678C372.275 234.922 372.691 235.023 373.1 234.96L399.71 230.74C400.118 230.676 400.484 230.453 400.728 230.119C400.972 229.785 401.073 229.368 401.01 228.96L397.91 209.42C397.887 209.219 397.823 209.024 397.722 208.848C397.622 208.671 397.487 208.517 397.325 208.395C397.163 208.273 396.978 208.184 396.782 208.135C396.585 208.086 396.38 208.078 396.18 208.11Z" fill="#FFB90B"/>
<path opacity="0.7" d="M396.18 208.11L384.47 210C384.202 210.047 383.952 210.164 383.744 210.34C383.537 210.516 383.38 210.744 383.29 211L382.74 212.55C382.659 212.764 382.525 212.954 382.35 213.101C382.175 213.248 381.965 213.348 381.74 213.39L369.92 215.26C369.528 215.322 369.176 215.536 368.941 215.857C368.707 216.177 368.609 216.578 368.67 216.97L371.32 233.66C371.384 234.068 371.607 234.435 371.941 234.678C372.275 234.922 372.691 235.023 373.1 234.96L399.71 230.74C400.118 230.676 400.484 230.453 400.728 230.119C400.972 229.785 401.073 229.368 401.01 228.96L397.91 209.42C397.887 209.219 397.823 209.024 397.722 208.848C397.622 208.671 397.487 208.517 397.325 208.395C397.163 208.273 396.978 208.184 396.782 208.135C396.585 208.086 396.38 208.078 396.18 208.11Z" fill="white"/>
<path d="M410.6 391.37L414.21 403.97L420.1 402.81L418.56 389.36L410.6 391.37Z" fill="#B97964"/>
<path d="M413.7 402.001L420.65 400.741C420.778 400.722 420.908 400.745 421.021 400.806C421.135 400.868 421.225 400.964 421.28 401.081L423.56 406.511C423.609 406.625 423.636 406.748 423.637 406.872C423.639 406.996 423.615 407.12 423.569 407.235C423.522 407.35 423.453 407.455 423.366 407.544C423.279 407.632 423.175 407.703 423.06 407.751C423 407.781 422.936 407.801 422.87 407.811C420.36 408.221 418.1 408.491 414.98 409.061C411.3 409.731 412.32 410.001 407.98 410.851C405.38 411.361 404.36 408.481 405.44 408.131C410.44 406.571 410.63 404.951 412.26 402.781C412.629 402.354 413.141 402.077 413.7 402.001Z" fill="#263238"/>
<path d="M359.26 388.92V405.62H365.52L368.75 389.31L359.26 388.92Z" fill="#B97964"/>
<path d="M359.15 404.55L366.2 404.8C366.329 404.807 366.453 404.857 366.551 404.942C366.649 405.027 366.715 405.143 366.74 405.27L367.81 411.05C367.844 411.295 367.787 411.544 367.648 411.749C367.509 411.954 367.3 412.101 367.06 412.16C366.993 412.17 366.926 412.17 366.86 412.16C364.32 412.03 362.06 411.81 358.86 411.7C355.12 411.57 356.05 412.05 351.66 411.95C349.01 411.89 348.66 408.87 349.76 408.76C354.92 408.3 355.51 406.76 357.56 405C358.014 404.655 358.582 404.494 359.15 404.55Z" fill="#263238"/>
<path d="M378.27 249.47L389.96 246.17C389.96 246.17 398.25 251.48 399.47 275.64C399.97 285.35 402.74 292.85 402.35 311.25C402.23 316.624 403.418 321.946 405.81 326.76C408.694 332.584 410.863 338.735 412.27 345.08C415.77 360.74 420.1 396.6 420.1 396.6L411.65 398C411.65 398 403.82 371.42 393.52 344.84C383.22 318.26 376 277.7 376 277.7L373.29 249.47H378.27Z" fill="#263238"/>
<path opacity="0.6" d="M383.11 278.94L380.74 279.45L378.06 282.13L377.37 284.87C378.44 290.25 380.11 298.18 382.24 307.04C386.32 284.49 383.11 278.94 383.11 278.94Z" fill="black"/>
<path d="M356.63 248.44L358.8 400.21H367.14C367.14 400.21 375.8 362.81 375.8 347.97C375.8 339.19 375.22 329.9 374.75 323.78C374.402 319.24 374.97 314.677 376.42 310.36C379.17 302.19 383.48 288.12 384.04 278.94C384.04 278.94 394.96 278.52 387.13 248.44H356.63Z" fill="#263238"/>
<path d="M363.09 171.65L359.24 175.38C359.677 175.832 360.215 176.174 360.809 176.379C361.403 176.584 362.037 176.646 362.66 176.56L363.09 171.65Z" fill="#A24E3F"/>
<path d="M384.13 172.41C382.58 180.02 382.13 183.28 377.66 186.68C371.17 189.86 361.97 188.22 361.22 180.3C360.54 173.17 363.22 161.95 371.14 159.91C372.89 159.458 374.728 159.461 376.477 159.919C378.225 160.378 379.828 161.276 381.131 162.53C382.434 163.783 383.395 165.349 383.922 167.078C384.449 168.808 384.524 170.644 384.14 172.41H384.13Z" fill="#B97964"/>
<path d="M364.64 166.8C364.59 166.791 364.543 166.771 364.501 166.742C364.46 166.712 364.425 166.674 364.4 166.63C364.241 166.284 364 165.982 363.699 165.749C363.398 165.515 363.045 165.358 362.67 165.29C362.631 165.287 362.592 165.275 362.557 165.256C362.522 165.238 362.491 165.212 362.466 165.182C362.441 165.151 362.422 165.116 362.411 165.078C362.4 165.04 362.396 165 362.4 164.96C362.404 164.92 362.416 164.881 362.435 164.845C362.454 164.809 362.481 164.778 362.512 164.753C362.544 164.727 362.581 164.709 362.62 164.698C362.659 164.687 362.7 164.685 362.74 164.69C363.215 164.77 363.663 164.962 364.048 165.251C364.432 165.54 364.742 165.917 364.95 166.35C364.969 166.386 364.981 166.426 364.985 166.467C364.989 166.507 364.985 166.548 364.972 166.587C364.96 166.626 364.941 166.663 364.915 166.694C364.888 166.725 364.856 166.751 364.82 166.77L364.64 166.8Z" fill="#263238"/>
<path opacity="0.2" d="M366.2 184.451C364.726 184.437 363.283 184.029 362.02 183.271C363.4 186.201 366.32 187.77 369.6 188.12L369.49 186.51C369.49 186.51 369.78 184.561 366.2 184.451Z" fill="#606060"/>
<path d="M369 193.611L369.68 183.841C369.68 183.841 373.63 182.391 376 183.841C376 183.841 377.14 191.151 379.3 192.901L369 193.611Z" fill="#B97964"/>
<path d="M361.37 169.93C361.23 170.49 361.37 171.03 361.78 171.12C362.19 171.21 362.59 170.81 362.72 170.26C362.85 169.71 362.72 169.16 362.31 169.07C361.9 168.98 361.52 169.36 361.37 169.93Z" fill="#263238"/>
<path d="M362.62 169.06C362.257 168.983 361.916 168.824 361.623 168.595C361.33 168.366 361.093 168.074 360.93 167.74C360.914 168.19 361.05 168.633 361.317 168.996C361.584 169.359 361.966 169.621 362.4 169.74L362.62 169.06Z" fill="#263238"/>
<path d="M363.85 171.67C363.218 173.126 363.19 174.773 363.77 176.25C364.56 178.2 366.63 177.91 367.77 176.31C368.84 174.86 369.7 172.1 368.23 170.65C367.906 170.345 367.511 170.125 367.081 170.009C366.652 169.893 366.2 169.885 365.766 169.986C365.333 170.087 364.931 170.294 364.597 170.588C364.262 170.882 364.006 171.253 363.85 171.67Z" fill="#B97964"/>
<path d="M387.28 166.8C387.28 166.8 391.41 162.87 388.11 159.98C384.81 157.09 388.57 163.1 387.28 166.8Z" fill="#263238"/>
<path d="M370.23 161.49C370.23 161.49 365.85 157.83 364.36 160.62C362.87 163.41 366.88 160.25 370.23 161.49Z" fill="#263238"/>
<path d="M369.77 169.941L363.3 167.861L363.35 167.721C363.428 167.45 363.396 167.16 363.261 166.913C363.126 166.666 362.899 166.482 362.63 166.4L361.45 166.061C361.318 166.013 361.177 165.994 361.036 166.005C360.896 166.016 360.76 166.056 360.636 166.123C360.513 166.19 360.404 166.282 360.319 166.394C360.233 166.505 360.172 166.634 360.14 166.771L358.9 171.001C358.808 171.335 358.844 171.691 359 172.001C359.085 172.16 359.202 172.3 359.343 172.414C359.484 172.527 359.646 172.611 359.82 172.661L360.37 172.831C360.499 172.845 360.63 172.845 360.76 172.831C361.06 172.83 361.351 172.732 361.591 172.552C361.831 172.371 362.006 172.118 362.09 171.831L363.09 168.361L369.54 170.43L369.77 169.941ZM360.94 166.68C361.05 166.641 361.17 166.641 361.28 166.68L362.46 167.031C362.515 167.047 362.566 167.073 362.61 167.109C362.654 167.145 362.691 167.19 362.718 167.24C362.745 167.29 362.762 167.345 362.767 167.402C362.773 167.459 362.767 167.516 362.75 167.571V167.701L360.75 167.061V166.981C360.773 166.86 360.841 166.753 360.94 166.68ZM361.52 171.741C361.492 171.842 361.443 171.937 361.376 172.02C361.31 172.102 361.227 172.169 361.133 172.218C361.039 172.267 360.936 172.296 360.831 172.303C360.725 172.31 360.62 172.296 360.52 172.26L359.98 172.101C359.883 172.072 359.792 172.025 359.713 171.961C359.634 171.898 359.568 171.819 359.52 171.731C359.471 171.643 359.441 171.546 359.43 171.447C359.42 171.347 359.43 171.246 359.46 171.15L360.46 167.621L362.46 168.271L361.52 171.741Z" fill="#263238"/>
<path d="M365.6 196.35C365.6 196.35 366.6 192.49 373.29 191.1C375.055 190.628 376.926 190.754 378.611 191.46C380.296 192.166 381.699 193.411 382.6 195L365.6 196.35Z" fill="#FFB90B"/>
<path opacity="0.5" d="M365.6 196.35C365.6 196.35 366.6 192.49 373.29 191.1C375.055 190.628 376.926 190.754 378.611 191.46C380.296 192.166 381.699 193.411 382.6 195L365.6 196.35Z" fill="white"/>
<path d="M355.86 249.44C355.86 249.44 382.98 252.79 391.64 246.17C390.078 239.229 389.526 232.099 390 225C390.83 213.72 394.31 202.59 390.6 196.49C386.89 190.39 359.45 194.94 354.04 200.49C348.63 206.04 355.86 227.73 355.86 249.44Z" fill="#FFB90B"/>
<path opacity="0.2" d="M360.11 205.32L357.87 212L352.87 218.29C353.45 222.92 354.24 228.13 354.87 233.63C357.511 230.743 359.565 227.371 360.92 223.7C365.82 210.35 361.92 202.91 361.92 202.91L360.11 205.32Z" fill="black"/>
<path d="M365.6 175.28C365.6 175.28 357.6 195.16 371.16 195.01C384.72 194.86 388 191.56 384.37 188.88C380.74 186.2 392.66 177.34 388.19 166.22C388.19 166.22 386.61 157.36 377.55 157.46C376.168 155.633 374.132 154.411 371.87 154.05C371.088 153.955 370.295 154.082 369.582 154.418C368.869 154.754 368.266 155.284 367.842 155.948C367.417 156.612 367.189 157.382 367.183 158.169C367.178 158.957 367.395 159.731 367.81 160.4L369.68 163.4C369.68 163.4 362.61 165.7 365.6 175.28Z" fill="#263238"/>
<path d="M358.84 199.45C358.84 199.45 352.18 200.92 350.84 209.29C349.5 217.66 348.7 224 346.26 224.85C343.82 225.7 332.26 216.1 332.26 216.1L332.64 210.48C332.68 209.863 332.534 209.248 332.223 208.713C331.911 208.179 331.447 207.749 330.89 207.48L330.02 207.05C329.48 206.789 328.877 206.688 328.281 206.759C327.686 206.83 327.123 207.07 326.66 207.45L326 208C325.567 208.358 325.238 208.824 325.047 209.352C324.855 209.879 324.808 210.448 324.91 211C325.36 213.25 326.29 216.87 327.91 218C327.91 218 344.13 236.65 348.96 234.71C353.79 232.77 357.45 221.04 359.43 216.17C361 212.33 363 208.05 358.84 199.45Z" fill="#B97964"/>
<path d="M359.26 198.36C357.45 197.2 349.91 198.6 348.13 215.9C348.13 215.9 354.08 220.9 359.72 220.23C359.72 220.23 367.06 203.39 359.26 198.36Z" fill="#FFB90B"/>
<path d="M347.75 214.24C347.75 214.24 353.58 219.24 360.88 218.97L360.04 220.92C360.04 220.92 353.85 222.28 347.48 216.18L347.75 214.24Z" fill="#FFB90B"/>
<path opacity="0.5" d="M347.75 214.24C347.75 214.24 353.58 219.24 360.88 218.97L360.04 220.92C360.04 220.92 353.85 222.28 347.48 216.18L347.75 214.24Z" fill="white"/>
<path d="M410.2 396.041L410.99 399.151L420.89 397.261L420.55 394.181L410.2 396.041Z" fill="#FFB90B"/>
<path d="M357.77 398.221L357.89 401.311H368.13L368.75 398.221H357.77Z" fill="#FFB90B"/>
</svg>
